<svg xmlns="http://www.w3.org/2000/svg" xmlns:xlink="http://www.w3.org/1999/xlink" width="500" zoomAndPan="magnify" viewBox="0 0 375 374.999991" height="500" preserveAspectRatio="xMidYMid meet" version="1.0"><defs><clipPath id="b4898dfbfe"><path d="M 272.425781 0 L 375 0 L 375 128.417969 L 272.425781 128.417969 Z M 272.425781 0 " clip-rule="nonzero"/></clipPath><clipPath id="0bb1a1a33d"><path d="M 375 -76.730469 L 477.574219 25.84375 L 375 128.417969 L 272.425781 25.84375 L 375 -76.730469 " clip-rule="nonzero"/></clipPath><clipPath id="4b9233ccc0"><path d="M 272.425781 57.496094 L 375 57.496094 L 375 262.640625 L 272.425781 262.640625 Z M 272.425781 57.496094 " clip-rule="nonzero"/></clipPath><clipPath id="c14bccde51"><path d="M 375 57.496094 L 477.574219 160.066406 L 375 262.640625 L 272.425781 160.066406 L 375 57.496094 " clip-rule="nonzero"/></clipPath><clipPath id="feb01a3b15"><path d="M 0 0 L 54.996094 0 L 54.996094 92.460938 L 0 92.460938 Z M 0 0 " clip-rule="nonzero"/></clipPath><clipPath id="d88efcfc11"><path d="M -47.574219 -112.6875 L 54.996094 -10.113281 L -47.574219 92.460938 L -150.148438 -10.113281 L -47.574219 -112.6875 " clip-rule="nonzero"/></clipPath><clipPath id="8c202f2c9f"><path d="M 0 0 L 63.507812 0 L 63.507812 175.789062 L 0 175.789062 Z M 0 0 " clip-rule="nonzero"/></clipPath><clipPath id="945942d7aa"><path d="M -39.066406 -29.355469 L 63.507812 73.214844 L -39.066406 175.789062 L -141.636719 73.214844 L -39.066406 -29.355469 " clip-rule="nonzero"/></clipPath><clipPath id="fa13404deb"><path d="M 0 272.425781 L 102.574219 272.425781 L 102.574219 375 L 0 375 Z M 0 272.425781 " clip-rule="nonzero"/></clipPath><clipPath id="a47acec8d9"><path d="M 0 272.425781 L 102.574219 375 L 0 477.574219 L -102.574219 375 L 0 272.425781 " clip-rule="nonzero"/></clipPath><clipPath id="967da672cb"><path d="M 0 293.980469 L 205.148438 293.980469 L 205.148438 375 L 0 375 Z M 0 293.980469 " clip-rule="nonzero"/></clipPath><clipPath id="5b30c3de9e"><path d="M 102.574219 293.980469 L 205.148438 396.554688 L 102.574219 499.128906 L 0 396.554688 L 102.574219 293.980469 " clip-rule="nonzero"/></clipPath><clipPath id="bb0f34cf04"><path d="M 309.363281 150.113281 L 375 150.113281 L 375 355.261719 L 309.363281 355.261719 Z M 309.363281 150.113281 " clip-rule="nonzero"/></clipPath><clipPath id="29a2ecaa55"><path d="M 411.9375 150.113281 L 514.511719 252.6875 L 411.9375 355.261719 L 309.363281 252.6875 L 411.9375 150.113281 " clip-rule="nonzero"/></clipPath></defs><rect x="-37.5" width="450" fill="#ffffff" y="-37.499999" height="449.999989" fill-opacity="1"/><rect x="-37.5" width="450" fill="#ffffff" y="-37.499999" height="449.999989" fill-opacity="1"/><rect x="-37.5" width="450" fill="#9a0801" y="-37.499999" height="449.999989" fill-opacity="1"/><g clip-path="url(#b4898dfbfe)"><g clip-path="url(#0bb1a1a33d)"><path fill="#c53421" d="M 272.425781 -76.730469 L 477.574219 -76.730469 L 477.574219 128.417969 L 272.425781 128.417969 Z M 272.425781 -76.730469 " fill-opacity="1" fill-rule="nonzero"/></g></g><g clip-path="url(#4b9233ccc0)"><g clip-path="url(#c14bccde51)"><path fill="#da4931" d="M 272.425781 57.496094 L 477.574219 57.496094 L 477.574219 262.640625 L 272.425781 262.640625 Z M 272.425781 57.496094 " fill-opacity="1" fill-rule="nonzero"/></g></g><g clip-path="url(#feb01a3b15)"><g clip-path="url(#d88efcfc11)"><path fill="#c53421" d="M -150.148438 -112.6875 L 54.996094 -112.6875 L 54.996094 92.460938 L -150.148438 92.460938 Z M -150.148438 -112.6875 " fill-opacity="1" fill-rule="nonzero"/></g></g><g clip-path="url(#8c202f2c9f)"><g clip-path="url(#945942d7aa)"><path fill="#da4931" d="M -141.636719 -29.355469 L 63.507812 -29.355469 L 63.507812 175.789062 L -141.636719 175.789062 Z M -141.636719 -29.355469 " fill-opacity="1" fill-rule="nonzero"/></g></g><g clip-path="url(#fa13404deb)"><g clip-path="url(#a47acec8d9)"><path fill="#da4931" d="M -102.574219 272.425781 L 102.574219 272.425781 L 102.574219 477.574219 L -102.574219 477.574219 Z M -102.574219 272.425781 " fill-opacity="1" fill-rule="nonzero"/></g></g><g clip-path="url(#967da672cb)"><g clip-path="url(#5b30c3de9e)"><path fill="#c53421" d="M 0 293.980469 L 205.148438 293.980469 L 205.148438 499.128906 L 0 499.128906 Z M 0 293.980469 " fill-opacity="1" fill-rule="nonzero"/></g></g><g clip-path="url(#bb0f34cf04)"><g clip-path="url(#29a2ecaa55)"><path fill="#c53421" d="M 309.363281 150.113281 L 514.511719 150.113281 L 514.511719 355.261719 L 309.363281 355.261719 Z M 309.363281 150.113281 " fill-opacity="1" fill-rule="nonzero"/></g></g></svg>